<?xml version="1.0" encoding="UTF-8" standalone="no"?>
<svg width="160px" height="21px" viewBox="0 0 160 21" version="1.1" xmlns="http://www.w3.org/2000/svg" xmlns:xlink="http://www.w3.org/1999/xlink">
    <!-- Generator: Sketch 41 (35326) - http://www.bohemiancoding.com/sketch -->
    <title>logo_black</title>
    <desc>Created with Sketch.</desc>
    <defs></defs>
    <g id="Page-1" stroke="none" stroke-width="1" fill="none" fill-rule="evenodd">
        <g id="logo_black" transform="translate(0.000000, 0.000000)">
            <path d="M0,19.936 L4.228,19.936 L4.228,7.224 L9.688,15.512 L9.8,15.512 L15.316,7.14 L15.316,19.936 L19.6,19.936 L19.6,0.336 L14.952,0.336 L9.8,8.624 L4.648,0.336 L0,0.336 L0,19.936 Z M24.304,19.936 L39.228,19.936 L39.228,16.1 L28.588,16.1 L28.588,11.984 L37.828,11.984 L37.828,8.148 L28.588,8.148 L28.588,4.172 L39.088,4.172 L39.088,0.336 L24.304,0.336 L24.304,19.936 Z M47.628,19.936 L51.94,19.936 L51.94,4.312 L57.904,4.312 L57.904,0.336 L41.664,0.336 L41.664,4.312 L47.628,4.312 L47.628,19.936 Z M61.208,19.936 L76.132,19.936 L76.132,16.1 L65.492,16.1 L65.492,11.984 L74.732,11.984 L74.732,8.148 L65.492,8.148 L65.492,4.172 L75.992,4.172 L75.992,0.336 L61.208,0.336 L61.208,19.936 Z M89.488,20.272 C95.536,20.272 99.932,15.708 99.932,10.136 L99.932,10.08 C99.932,4.508 95.592,0 89.544,0 C83.496,0 79.1,4.564 79.1,10.136 L79.1,10.192 C79.1,15.764 83.44,20.272 89.488,20.272 L89.488,20.272 Z M89.544,16.296 C86.072,16.296 83.608,13.496 83.608,10.136 L83.608,10.08 C83.608,6.72 86.016,3.976 89.488,3.976 C92.96,3.976 95.424,6.776 95.424,10.136 L95.424,10.192 C95.424,13.552 93.016,16.296 89.544,16.296 L89.544,16.296 Z M103.768,19.936 L108.08,19.936 L108.08,13.664 L111.412,13.664 L111.468,13.664 L115.668,19.936 L120.708,19.936 L115.92,12.936 C118.412,12.012 120.12,10.024 120.12,6.86 L120.12,6.804 C120.12,4.956 119.532,3.416 118.44,2.324 C117.152,1.036 115.22,0.336 112.728,0.336 L103.768,0.336 L103.768,19.936 Z M108.08,9.856 L108.08,4.228 L112.364,4.228 C114.464,4.228 115.752,5.18 115.752,7.028 L115.752,7.084 C115.752,8.736 114.548,9.856 112.448,9.856 L108.08,9.856 Z" id="METEORUP" fill="#2D2D2D"></path>
            <path d="M132.272,20.244 C137.172,20.244 140.448,17.276 140.448,11.564 L140.448,0.336 L138.236,0.336 L138.236,11.732 C138.236,16.016 135.94,18.2 132.328,18.2 C128.576,18.2 126.336,15.82 126.336,11.592 L126.336,0.336 L124.124,0.336 L124.124,11.732 C124.124,17.276 127.428,20.244 132.272,20.244 L132.272,20.244 Z M144.684,19.936 L146.896,19.936 L146.896,13.02 L151.656,13.02 C155.828,13.02 159.356,10.836 159.356,6.608 L159.356,6.552 C159.356,2.688 156.444,0.336 152.02,0.336 L144.684,0.336 L144.684,19.936 Z M146.896,11.004 L146.896,2.38 L151.852,2.38 C155.016,2.38 157.116,3.836 157.116,6.636 L157.116,6.692 C157.116,9.268 154.988,11.004 151.74,11.004 L146.896,11.004 Z" id="METEORUP" fill="#03A9F4"></path>
        </g>
    </g>
</svg>